<svg width="61" height="61" viewBox="0 0 61 61" fill="none" xmlns="http://www.w3.org/2000/svg">
<path d="M30.4999 6.33838C43.8437 6.33838 54.6616 17.1563 54.6616 30.5001C54.6616 43.8439 43.8437 54.6618 30.4999 54.6618C17.1561 54.6618 6.33818 43.8439 6.33818 30.5001C6.33818 17.1563 17.1561 6.33838 30.4999 6.33838ZM30.4999 52.3743C42.5569 52.3743 52.3741 42.5571 52.3741 30.5001C52.3741 18.4431 42.5569 8.62588 30.4999 8.62588C18.4429 8.62588 8.62568 18.4431 8.62568 30.5001C8.62568 42.5571 18.4429 52.3743 30.4999 52.3743Z" fill="#F6255A"/>
<path d="M19.0149 29.3561H39.2212L31.9774 22.1124C31.5485 21.6835 31.5485 20.921 31.9774 20.4921C32.4063 20.0632 33.1688 20.0632 33.5978 20.4921L42.8431 29.6897C42.9384 29.7851 43.0337 29.928 43.0813 30.071C43.1767 30.3569 43.1767 30.6905 43.0813 30.9288C43.0337 31.0718 42.9384 31.2147 42.8431 31.3101L33.5978 40.5077C33.3595 40.746 33.0735 40.8413 32.7876 40.8413C32.5017 40.8413 32.2157 40.746 31.9774 40.5077C31.5485 40.0788 31.5485 39.3163 31.9774 38.8874L39.2212 31.6437H18.9673C18.3478 31.6437 17.8235 31.1194 17.8235 30.4999C17.8235 29.8804 18.3478 29.3561 19.0149 29.3561Z" fill="#F6255A"/>
</svg>
