<svg width="61" height="61" viewBox="0 0 61 61" fill="none" xmlns="http://www.w3.org/2000/svg">
<path d="M30.5001 6.33838C17.1563 6.33838 6.33838 17.1563 6.33838 30.5001C6.33838 43.8439 17.1563 54.6618 30.5001 54.6618C43.8439 54.6618 54.6618 43.8439 54.6618 30.5001C54.6618 17.1563 43.8439 6.33838 30.5001 6.33838ZM30.5001 52.3743C18.4431 52.3743 8.62588 42.5571 8.62588 30.5001C8.62588 18.4431 18.4431 8.62588 30.5001 8.62588C42.5571 8.62588 52.3743 18.4431 52.3743 30.5001C52.3743 42.5571 42.5571 52.3743 30.5001 52.3743Z" fill="#F6255A"/>
<path d="M41.9851 29.3561H21.7788L29.0226 22.1124C29.4515 21.6835 29.4515 20.921 29.0226 20.4921C28.5937 20.0632 27.8312 20.0632 27.4022 20.4921L18.1569 29.6897C18.0616 29.7851 17.9663 29.928 17.9187 30.071C17.8233 30.3569 17.8233 30.6905 17.9187 30.9288C17.9663 31.0718 18.0616 31.2147 18.1569 31.3101L27.4022 40.5077C27.6405 40.746 27.9265 40.8413 28.2124 40.8413C28.4983 40.8413 28.7843 40.746 29.0226 40.5077C29.4515 40.0788 29.4515 39.3163 29.0226 38.8874L21.7788 31.6437H42.0327C42.6522 31.6437 43.1765 31.1194 43.1765 30.4999C43.1765 29.8804 42.6522 29.3561 41.9851 29.3561Z" fill="#F6255A"/>
</svg>
